<svg width="27" height="32" viewBox="0 0 27 32" fill="none" xmlns="http://www.w3.org/2000/svg">
<g id="Asset 1 1" clip-path="url(#clip0_6_4391)">
<g id="OBJECTS">
<g id="Group">
<path id="Vector" d="M14.5353 0.143883L8.51472 2.32956C7.28822 2.77482 6.65583 4.1275 7.10224 5.35085L12.4452 19.9929C12.8916 21.2163 14.2478 21.847 15.4743 21.4018L21.4949 19.2161C22.7214 18.7708 23.3537 17.4182 22.9073 16.1948L17.5643 1.55273C17.1179 0.329383 15.7618 -0.30138 14.5353 0.143883Z" fill="#2A5E99"/>
<path id="Vector_2" d="M13.2617 2.06733L10.7301 2.98614C10.5872 3.03842 10.4299 2.96396 10.3791 2.82297C10.3267 2.6804 10.4013 2.52356 10.5427 2.47287L13.0743 1.55406C13.2173 1.50178 13.3745 1.57624 13.4253 1.71723C13.4777 1.8598 13.4031 2.01663 13.2617 2.06733Z" fill="white"/>
<path id="Vector_3" d="M16.816 1.62755L7.75684 4.91637L13.246 19.9589L22.3051 16.6701L16.816 1.62755Z" fill="white"/>
</g>
<g id="Group_2">
<path id="Vector_4" d="M6.17203 14.6867C5.61774 14.7232 5.13809 14.3065 5.10156 13.7537L4.92844 11.1857L0.964208 9.10574C0.473443 8.84752 0.284443 8.24079 0.541737 7.75129C0.80062 7.2602 1.40733 7.07168 1.89968 7.3299L6.36103 9.6697C6.67074 9.83129 6.87244 10.1434 6.89627 10.4903L7.1075 13.619C7.14403 14.1719 6.72633 14.6503 6.17203 14.6867Z" fill="#2A5E99"/>
<path id="Vector_5" d="M18.3445 27.9477L6.10394 28.7683C5.54965 28.8048 5.07 28.3881 5.03347 27.8353C4.99694 27.2824 5.41465 26.804 5.96894 26.7675L18.2095 25.9469C18.5922 25.9216 18.9226 25.6855 19.0703 25.3339L22.8964 15.059C23.0901 14.5394 23.6698 14.2749 24.1892 14.4681C24.7101 14.6614 24.9754 15.238 24.7816 15.7576L20.9412 26.0705C20.4822 27.1667 19.4928 27.8717 18.3445 27.9493V27.9477Z" fill="#2A5E99"/>
<path id="Vector_6" d="M22.1193 23.6721L7.84103 24.6289C6.73244 24.7034 5.77315 23.8669 5.6985 22.7612L5.0918 13.7521L24.3889 12.4578C25.8802 12.358 26.957 13.8582 26.3789 15.2348L23.8409 22.4428C23.5471 23.1445 22.88 23.6182 22.1209 23.6705L22.1193 23.6721Z" fill="#F15513"/>
<g id="Group_3">
<path id="Vector_7" d="M23.409 16.0459L8.3382 17.0566C8.06026 17.0756 7.82202 16.8665 7.80296 16.5893C7.7839 16.3137 7.99355 16.0745 8.27149 16.0554L23.3423 15.0447C23.6202 15.0257 23.8584 15.2348 23.8775 15.5121C23.8965 15.7877 23.6869 16.0269 23.409 16.0459Z" fill="white"/>
<path id="Vector_8" d="M21.5699 18.682L8.50665 19.558C8.22871 19.577 7.99048 19.3679 7.97142 19.0907C7.95236 18.8135 8.16201 18.5758 8.43995 18.5568L21.5032 17.6808C21.7811 17.6618 22.0194 17.8709 22.0384 18.1481C22.0575 18.4238 21.8478 18.663 21.5699 18.682Z" fill="white"/>
<path id="Vector_9" d="M19.6799 21.3228L8.67657 22.061C8.39863 22.08 8.1604 21.8709 8.14134 21.5937C8.12228 21.318 8.33193 21.0788 8.60987 21.0598L19.6132 20.3216C19.8911 20.3026 20.1293 20.5117 20.1484 20.7889C20.1675 21.0646 19.9578 21.3038 19.6799 21.3228Z" fill="white"/>
</g>
<g id="Group_4">
<path id="Vector_10" d="M9.47232 29.7996C9.54696 30.9053 8.70837 31.8622 7.59979 31.9366C6.4912 32.0111 5.5319 31.1746 5.45726 30.0689C5.38261 28.9632 6.2212 28.0063 7.32979 27.9319C8.43838 27.8574 9.39767 28.6939 9.47232 29.7996Z" fill="#35B3F1"/>
<path id="Vector_11" d="M8.46861 29.8677C8.50514 30.4206 8.08744 30.899 7.53314 30.9354C6.97885 30.9719 6.4992 30.5552 6.46267 30.0024C6.42614 29.4495 6.84385 28.9711 7.39814 28.9346C7.95244 28.8982 8.43208 29.3148 8.46861 29.8677Z" fill="white"/>
</g>
<g id="Group_5">
<path id="Vector_12" d="M20.3214 29.0725C20.3961 30.1782 19.5575 31.135 18.4489 31.2095C17.3403 31.284 16.381 30.4475 16.3064 29.3418C16.2317 28.236 17.0703 27.2792 18.1789 27.2048C19.2875 27.1303 20.2468 27.9667 20.3214 29.0725Z" fill="#35B3F1"/>
<path id="Vector_13" d="M19.3177 29.139C19.3543 29.6919 18.9366 30.1703 18.3823 30.2067C17.828 30.2432 17.3483 29.8265 17.3118 29.2737C17.2753 28.7208 17.693 28.2424 18.2473 28.2059C18.8016 28.1695 19.2812 28.5861 19.3177 29.139Z" fill="white"/>
</g>
</g>
<g id="Group_6">
<path id="Vector_14" d="M1.98522 16.9901C2.02175 17.543 1.60404 18.0214 1.04975 18.0578C0.495452 18.0943 0.0158046 17.6776 -0.0207249 17.1248C-0.0572543 16.5719 0.360452 16.0935 0.914746 16.057C1.46904 16.0206 1.94869 16.4372 1.98522 16.9901Z" fill="#35B3F1"/>
<path id="Vector_15" d="M26.9872 6.62495C27.0237 7.17783 26.606 7.65624 26.0517 7.69268C25.4974 7.72911 25.0178 7.31248 24.9812 6.75961C24.9447 6.20674 25.3624 5.72832 25.9167 5.69189C26.471 5.65545 26.9506 6.07208 26.9872 6.62495Z" fill="#35B3F1"/>
<path id="Vector_16" d="M5.90953 2.93545C5.94606 3.48832 5.52836 3.96674 4.97406 4.00317C4.41977 4.03961 3.94012 3.62297 3.90359 3.0701C3.86706 2.51723 4.28477 2.03881 4.83906 2.00238C5.39336 1.96594 5.873 2.38258 5.90953 2.93545Z" fill="#35B3F1"/>
</g>
</g>
</g>
<defs>
<clipPath id="clip0_6_4391">
<rect width="27" height="32" fill="white"/>
</clipPath>
</defs>
</svg>
