<svg width="165" height="196" viewBox="0 0 165 196" fill="none" xmlns="http://www.w3.org/2000/svg">
<g id="Asset 1 1" clip-path="url(#clip0_6_4102)">
<g id="OBJECTS">
<g id="Group">
<path id="Vector" d="M88.828 0.881295L52.0357 14.2686C44.5405 16.9958 40.6759 25.281 43.4039 32.774L76.0556 122.457C78.7836 129.95 87.0713 133.813 94.5665 131.086L131.359 117.699C138.854 114.971 142.719 106.686 139.991 99.1933L107.339 9.5105C104.611 2.01749 96.3233 -1.84594 88.828 0.881295Z" fill="#2A5E99"/>
<path id="Vector_2" d="M81.0445 12.6624L65.5733 18.2901C64.6997 18.6103 63.7389 18.1543 63.4283 17.2907C63.108 16.4174 63.5642 15.4568 64.428 15.1463L79.8992 9.51862C80.7727 9.19842 81.7336 9.65446 82.0442 10.518C82.3645 11.3913 81.9083 12.3519 81.0445 12.6624Z" fill="white"/>
<path id="Vector_3" d="M102.767 9.96879L47.4053 30.1128L80.9499 122.248L136.312 102.104L102.767 9.96879Z" fill="white"/>
</g>
<g id="Group_2">
<path id="Vector_4" d="M37.7169 89.9563C34.3296 90.1794 31.3984 87.6275 31.1752 84.2412L30.1172 68.5127L5.89135 55.7727C2.89223 54.1911 1.73723 50.4749 3.30959 47.4767C4.89164 44.4687 8.59929 43.3141 11.6081 44.8957L38.8719 59.227C40.7646 60.2167 41.9972 62.1281 42.1428 64.2531L43.4337 83.4165C43.6569 86.8028 41.1043 89.7331 37.7169 89.9563Z" fill="#2A5E99"/>
<path id="Vector_5" d="M112.103 171.18L37.2995 176.206C33.9121 176.429 30.981 173.877 30.7577 170.491C30.5345 167.105 33.0871 164.174 36.4745 163.951L111.278 158.925C113.617 158.77 115.636 157.324 116.538 155.17L139.92 92.2365C141.104 89.0539 144.647 87.4335 147.82 88.6173C151.004 89.801 152.625 93.3329 151.441 96.5155L127.972 159.682C125.167 166.396 119.12 170.714 112.103 171.19V171.18Z" fill="#2A5E99"/>
<path id="Vector_6" d="M135.173 144.992L47.9176 150.852C41.1429 151.308 35.2805 146.185 34.8243 139.412L31.1167 84.2315L149.043 76.3042C158.157 75.6929 164.738 84.8816 161.205 93.3135L145.695 137.462C143.899 141.76 139.823 144.662 135.183 144.982L135.173 144.992Z" fill="#F15513"/>
<g id="Group_3">
<path id="Vector_7" d="M143.055 98.2814L50.956 104.472C49.2574 104.588 47.8016 103.308 47.6851 101.61C47.5686 99.9212 48.8498 98.4561 50.5483 98.3396L142.647 92.1491C144.346 92.0327 145.802 93.3135 145.918 95.0115C146.035 96.6998 144.754 98.165 143.055 98.2814Z" fill="white"/>
<path id="Vector_8" d="M131.816 114.427L51.9848 119.793C50.2862 119.909 48.8304 118.629 48.7139 116.931C48.5974 115.233 49.8786 113.777 51.5771 113.661L131.408 108.295C133.107 108.178 134.562 109.459 134.679 111.157C134.795 112.846 133.514 114.311 131.816 114.427Z" fill="white"/>
<path id="Vector_9" d="M120.266 130.602L53.0233 135.124C51.3248 135.24 49.8689 133.959 49.7525 132.261C49.636 130.573 50.9172 129.108 52.6157 128.991L119.858 124.47C121.557 124.353 123.012 125.634 123.129 127.332C123.245 129.02 121.964 130.486 120.266 130.602Z" fill="white"/>
</g>
<g id="Group_4">
<path id="Vector_10" d="M57.886 182.523C58.3422 189.295 53.2175 195.156 46.4428 195.612C39.6681 196.068 33.8057 190.945 33.3495 184.172C32.8934 177.399 38.0181 171.539 44.7928 171.083C51.5675 170.627 57.4298 175.75 57.886 182.523Z" fill="#35B3F1"/>
<path id="Vector_11" d="M51.7521 182.94C51.9753 186.326 49.4227 189.256 46.0353 189.48C42.648 189.703 39.7168 187.151 39.4936 183.765C39.2703 180.378 41.823 177.448 45.2103 177.225C48.5977 177.002 51.5289 179.553 51.7521 182.94Z" fill="white"/>
</g>
<g id="Group_5">
<path id="Vector_12" d="M124.187 178.069C124.643 184.842 119.518 190.702 112.744 191.158C105.969 191.614 100.106 186.491 99.6503 179.718C99.1941 172.946 104.319 167.085 111.094 166.629C117.868 166.173 123.731 171.296 124.187 178.069Z" fill="#35B3F1"/>
<path id="Vector_13" d="M118.053 178.476C118.276 181.863 115.723 184.793 112.336 185.016C108.949 185.239 106.018 182.688 105.794 179.301C105.571 175.915 108.124 172.985 111.511 172.761C114.898 172.538 117.83 175.09 118.053 178.476Z" fill="white"/>
</g>
</g>
<g id="Group_6">
<path id="Vector_14" d="M12.1325 104.064C12.3557 107.451 9.80306 110.381 6.41571 110.604C3.02836 110.827 0.0971802 108.275 -0.126055 104.889C-0.34929 101.503 2.20336 98.5725 5.59071 98.3493C8.97806 98.1261 11.9092 100.678 12.1325 104.064Z" fill="#35B3F1"/>
<path id="Vector_15" d="M164.923 40.5778C165.146 43.9642 162.593 46.8945 159.206 47.1176C155.818 47.3408 152.887 44.7889 152.664 41.4026C152.441 38.0162 154.993 35.0859 158.381 34.8628C161.768 34.6396 164.699 37.1915 164.923 40.5778Z" fill="#35B3F1"/>
<path id="Vector_16" d="M36.1159 17.9796C36.3391 21.366 33.7865 24.2962 30.3991 24.5194C27.0118 24.7426 24.0806 22.1907 23.8573 18.8044C23.6341 15.418 26.1868 12.4877 29.5741 12.2646C32.9615 12.0414 35.8926 14.5933 36.1159 17.9796Z" fill="#35B3F1"/>
</g>
</g>
</g>
<defs>
<clipPath id="clip0_6_4102">
<rect width="165" height="196" fill="white"/>
</clipPath>
</defs>
</svg>
