<svg width="25" height="24" viewBox="0 0 25 24" fill="none" xmlns="http://www.w3.org/2000/svg">
<path d="M8.75 0H4.75C2.269 0 0.25 2.019 0.25 4.5V8.5C0.25 9.327 0.923 10 1.75 10H8.75C9.577 10 10.25 9.327 10.25 8.5V1.5C10.25 0.673 9.577 0 8.75 0ZM9.25 8.5C9.25 8.776 9.026 9 8.75 9H1.75C1.474 9 1.25 8.776 1.25 8.5V4.5C1.25 2.57 2.82 1 4.75 1H8.75C9.026 1 9.25 1.224 9.25 1.5V8.5ZM13.75 10H20.75C21.577 10 22.25 9.327 22.25 8.5V4.5C22.25 2.019 20.231 0 17.75 0H13.75C12.923 0 12.25 0.673 12.25 1.5V8.5C12.25 9.327 12.923 10 13.75 10ZM13.25 1.5C13.25 1.224 13.474 1 13.75 1H17.75C19.68 1 21.25 2.57 21.25 4.5V8.5C21.25 8.776 21.026 9 20.75 9H13.75C13.474 9 13.25 8.776 13.25 8.5V1.5ZM8.75 12H1.75C0.923 12 0.25 12.673 0.25 13.5V17.5C0.25 19.981 2.269 22 4.75 22H8.75C9.577 22 10.25 21.327 10.25 20.5V13.5C10.25 12.673 9.577 12 8.75 12ZM9.25 20.5C9.25 20.776 9.026 21 8.75 21H4.75C2.82 21 1.25 19.43 1.25 17.5V13.5C1.25 13.224 1.474 13 1.75 13H8.75C9.026 13 9.25 13.224 9.25 13.5V20.5ZM24.104 23.146L21.104 20.146C21.809 19.284 22.25 18.198 22.25 17C22.25 14.243 20.007 12 17.25 12C14.493 12 12.25 14.243 12.25 17C12.25 19.757 14.493 22 17.25 22C18.448 22 19.534 21.559 20.396 20.854L23.396 23.854C23.494 23.952 23.622 24 23.75 24C23.878 24 24.006 23.951 24.104 23.854C24.299 23.659 24.299 23.341 24.104 23.146ZM17.25 21C15.044 21 13.25 19.206 13.25 17C13.25 14.794 15.044 13 17.25 13C19.456 13 21.25 14.794 21.25 17C21.25 19.206 19.456 21 17.25 21Z" fill="#A2A2A2"/>
</svg>
