<svg width="25" height="24" viewBox="0 0 25 24" fill="none" xmlns="http://www.w3.org/2000/svg">
<g id="Frame">
<path id="Vector" d="M4.77539 4.5H20.8846C21.0299 4.5 21.1721 4.54221 21.2938 4.62149C21.4156 4.70077 21.5117 4.81371 21.5705 4.94658C21.6293 5.07946 21.6482 5.22655 21.6249 5.36998C21.6017 5.51341 21.5373 5.64699 21.4395 5.7545L15.275 12.5355C15.1495 12.6735 15.08 12.8534 15.08 13.04V18.3486C15.08 18.4721 15.0495 18.5936 14.9913 18.7025C14.933 18.8114 14.8488 18.9042 14.746 18.9726L11.746 20.9727C11.6331 21.048 11.5018 21.0912 11.3662 21.0977C11.2306 21.1043 11.0958 21.0739 10.9761 21.0099C10.8564 20.9458 10.7563 20.8505 10.6866 20.734C10.6168 20.6176 10.58 20.4844 10.58 20.3486V13.04C10.58 12.8534 10.5104 12.6735 10.3849 12.5355L4.22044 5.7545C4.1227 5.64699 4.0583 5.51341 4.03505 5.36998C4.01181 5.22655 4.03073 5.07946 4.08951 4.94658C4.14829 4.81371 4.2444 4.70077 4.36616 4.62149C4.48793 4.54221 4.63009 4.5 4.77539 4.5Z" stroke="#2A5E99" stroke-width="2" stroke-linecap="round" stroke-linejoin="round"/>
</g>
</svg>
