<svg width="24" height="24" viewBox="0 0 24 24" fill="none" xmlns="http://www.w3.org/2000/svg">
<g id="material-symbols-light:language">
<path id="Vector" d="M12 21C13.2387 21 14.4053 20.7633 15.5 20.29C16.5947 19.816 17.548 19.1727 18.36 18.36C19.172 17.5473 19.8153 16.594 20.29 15.5C20.7647 14.406 21.0013 13.2393 21 12C21 10.7573 20.7633 9.58967 20.29 8.497C19.816 7.40367 19.1727 6.45133 18.36 5.64C17.5473 4.82867 16.594 4.18533 15.5 3.71C14.4053 3.23667 13.2387 3 12 3C10.7573 3 9.58966 3.23667 8.49699 3.71C7.40366 4.184 6.45099 4.82733 5.63899 5.64C4.82699 6.45267 4.18399 7.405 3.70999 8.497C3.23666 9.59033 2.99999 10.758 2.99999 12C2.99999 13.2387 3.23666 14.4053 3.70999 15.5C4.18399 16.5947 4.82733 17.548 5.63999 18.36C6.45266 19.172 7.40499 19.8153 8.49699 20.29C9.58899 20.7647 10.7567 21.0013 12 21ZM12 20.008C11.4133 19.254 10.9293 18.5137 10.548 17.787C10.1673 17.0603 9.85766 16.247 9.61899 15.347H14.381C14.1163 16.2977 13.8003 17.1363 13.433 17.863C13.065 18.5897 12.5873 19.3047 12 20.008ZM13.273 19.858C13.7397 19.308 14.1657 18.628 14.551 17.818C14.9363 17.0087 15.223 16.1847 15.411 15.346H19.246C18.6727 16.5893 17.8603 17.6093 16.809 18.406C15.757 19.202 14.5783 19.686 13.273 19.858ZM10.727 19.858C9.42166 19.686 8.24299 19.202 7.19099 18.406C6.13966 17.6093 5.32733 16.5893 4.75399 15.346H8.58799C8.84133 16.1973 9.16033 17.0277 9.54499 17.837C9.93033 18.647 10.3243 19.3213 10.727 19.858ZM19.654 14.347H15.619C15.695 13.9363 15.7483 13.5363 15.779 13.147C15.811 12.7583 15.827 12.376 15.827 12C15.827 11.624 15.8113 11.2417 15.78 10.853C15.7487 10.4643 15.6953 10.0643 15.62 9.653H19.653C19.7617 9.99967 19.8467 10.3773 19.908 10.786C19.9693 11.194 20 11.5987 20 12C20 12.4013 19.9697 12.8063 19.909 13.215C19.8483 13.6237 19.7633 14.0007 19.654 14.346M14.619 14.346H9.38099C9.30499 13.936 9.25166 13.5427 9.22099 13.166C9.18899 12.79 9.17299 12.4013 9.17299 12C9.17299 11.5987 9.18866 11.21 9.21999 10.834C9.25133 10.458 9.30466 10.0647 9.37999 9.654H14.62C14.6953 10.064 14.7487 10.4573 14.78 10.834C14.8113 11.21 14.827 11.5987 14.827 12C14.827 12.4013 14.8113 12.79 14.78 13.166C14.7487 13.542 14.6943 13.9353 14.619 14.346ZM8.37999 14.346H4.34599C4.23733 14 4.15233 13.623 4.09099 13.215C4.03033 12.8063 3.99999 12.4013 3.99999 12C3.99999 11.5987 4.03033 11.1937 4.09099 10.785C4.15166 10.3763 4.23666 9.99933 4.34599 9.654H8.38099C8.30499 10.064 8.25166 10.4637 8.22099 10.853C8.18899 11.2423 8.17299 11.6247 8.17299 12C8.17299 12.3753 8.18866 12.7577 8.21999 13.147C8.25133 13.5363 8.30466 13.9363 8.37999 14.347M8.58799 8.654H4.75399C5.33999 7.38467 6.14266 6.36467 7.16199 5.594C8.18133 4.82333 9.36966 4.333 10.727 4.123C10.2603 4.737 9.84066 5.43933 9.46799 6.23C9.09533 7.02 8.80199 7.828 8.58799 8.654ZM14.381 8.654H9.61899C9.88299 7.71533 10.2087 6.86667 10.596 6.108C10.9833 5.34933 11.4513 4.644 12 3.992C12.5487 4.64333 13.0167 5.34867 13.404 6.108C13.7913 6.86733 14.1177 7.716 14.381 8.654ZM19.245 8.654H15.411C15.197 7.82867 14.9037 7.02067 14.531 6.23C14.1583 5.43933 13.7387 4.737 13.272 4.123C14.6413 4.33367 15.8327 4.827 16.846 5.603C17.8593 6.38033 18.6593 7.397 19.246 8.653" fill="#2A5E99"/>
</g>
</svg>
