<svg width="23" height="24" viewBox="0 0 23 24" fill="none" xmlns="http://www.w3.org/2000/svg">
<g id="material-symbols-light:live-help-outline">
<path id="Vector" d="M11.5722 16.212C11.7717 16.212 11.9395 16.136 12.0756 15.984C12.2128 15.832 12.2815 15.645 12.2815 15.423C12.2815 15.2017 12.2131 15.015 12.0765 14.863C11.9398 14.711 11.772 14.635 11.5731 14.635C11.3741 14.635 11.206 14.711 11.0687 14.863C10.9315 15.015 10.8632 15.2017 10.8638 15.423C10.8644 15.6443 10.9327 15.831 11.0687 15.983C11.2054 16.1357 11.3732 16.212 11.5722 16.212ZM11.1092 12.9H11.9767C11.9887 12.6807 12.0088 12.4903 12.0369 12.329C12.0651 12.167 12.1166 12.0073 12.1916 11.85C12.2665 11.6927 12.363 11.5347 12.481 11.376C12.5991 11.2173 12.7459 11.0407 12.9215 10.846C13.3531 10.3653 13.6659 9.94867 13.8601 9.596C14.0549 9.24267 14.1523 8.84133 14.1523 8.392C14.1523 7.612 13.9113 6.983 13.4295 6.505C12.9476 6.02767 12.3591 5.789 11.6639 5.789C11.0244 5.789 10.4736 5.97867 10.0115 6.358C9.55003 6.73733 9.21291 7.19233 9.00015 7.723L9.82632 8.103C9.97735 7.705 10.1928 7.375 10.4727 7.113C10.7532 6.85033 11.132 6.719 11.609 6.719C12.1748 6.719 12.5955 6.89133 12.8712 7.236C13.1463 7.58 13.2838 7.971 13.2838 8.409C13.2838 8.74367 13.2014 9.05033 13.0366 9.329C12.8718 9.607 12.6408 9.89933 12.3435 10.206C12.1235 10.4393 11.9348 10.662 11.7771 10.874C11.6195 11.086 11.4886 11.298 11.3843 11.51C11.2788 11.7213 11.2069 11.939 11.1685 12.163C11.129 12.3863 11.1092 12.632 11.1092 12.9ZM11.5758 21.577L9.25906 19H5.83571C5.42217 19 5.07666 18.846 4.79917 18.538C4.52168 18.23 4.38324 17.8453 4.38384 17.384V4.616C4.38384 4.15533 4.52258 3.771 4.80007 3.463C5.07756 3.155 5.42307 3.00067 5.8366 3H17.3158C17.7293 3 18.0749 3.15433 18.3523 3.463C18.6298 3.77167 18.7683 4.156 18.7677 4.616V17.385C18.7677 17.845 18.6292 18.2293 18.3523 18.538C18.0755 18.8467 17.7296 19.0007 17.3149 19H13.8925L11.5758 21.577ZM5.8366 18H9.63304L11.5758 20.162L13.5194 18H17.3158C17.477 18 17.6095 17.9423 17.7132 17.827C17.8168 17.7117 17.8687 17.5643 17.8687 17.385V4.615C17.8687 4.43567 17.8168 4.28833 17.7132 4.173C17.6095 4.05767 17.477 4 17.3158 4H5.83571C5.67449 4 5.54204 4.05767 5.43835 4.173C5.33467 4.28833 5.28283 4.436 5.28283 4.616V17.385C5.28283 17.5643 5.33467 17.7117 5.43835 17.827C5.54204 17.9423 5.67479 18 5.8366 18Z" fill="#2A5E99"/>
</g>
</svg>
