<svg width="20" height="21" viewBox="0 0 20 21" fill="none" xmlns="http://www.w3.org/2000/svg">
<g id="Frame" clip-path="url(#clip0_7_8209)">
<path id="Vector" d="M10.4167 0.190002C13.1894 0.190002 15.6819 1.45761 17.2545 3.66739C18.8195 5.86598 19.1809 8.64945 18.2211 11.1131C17.9671 11.7793 17.5604 12.431 17.0139 13.0459L10.9651 19.9439C10.8282 20.1 10.6277 20.19 10.4167 20.19C10.2057 20.19 10.0052 20.1 9.86834 19.9439L3.81781 13.0441C3.27375 12.4327 2.86653 11.7802 2.61034 11.1086C1.65258 8.64945 2.01393 5.86598 3.57889 3.66739C5.15158 1.45761 7.64404 0.190002 10.4167 0.190002ZM15.9223 12.1341C16.3565 11.6453 16.6764 11.1372 16.8723 10.6232C17.6663 8.58473 17.3655 6.28333 16.0694 4.46258C14.7695 2.63598 12.7092 1.58844 10.4167 1.58844C8.1242 1.58844 6.06366 2.63602 4.76378 4.46258C3.46796 6.28333 3.16736 8.58473 3.95944 10.6185C4.15728 11.1374 4.4771 11.6456 4.9112 12.1339L10.4167 18.412L15.9189 12.1379L15.9223 12.1341Z" fill="#2A5E99"/>
<path id="Vector_2" d="M6.24939 8.52314C6.24939 6.22551 8.11868 4.35648 10.4161 4.35648C12.7134 4.35648 14.5828 6.22576 14.5828 8.52314C14.5828 10.8208 12.7137 12.6898 10.4161 12.6898C8.11843 12.6898 6.24939 10.8208 6.24939 8.52314ZM7.73791 8.52359C7.73791 10.0005 8.93955 11.2022 10.4165 11.2022C11.8934 11.2022 13.0951 10.0005 13.0951 8.52359C13.0951 7.04664 11.8934 5.845 10.4165 5.845C8.93955 5.845 7.73791 7.04664 7.73791 8.52359Z" fill="#2A5E99"/>
</g>
<defs>
<clipPath id="clip0_7_8209">
<rect width="20" height="20" fill="white" transform="translate(0 0.190002)"/>
</clipPath>
</defs>
</svg>
