<svg width="32" height="33" viewBox="0 0 32 33" fill="none" xmlns="http://www.w3.org/2000/svg">
<g id="Frame">
<g id="Group">
<g id="Group_2">
<path id="Vector" d="M26.2719 10.7511H11.1999C11.1245 10.7741 11.0585 10.8207 11.0115 10.8841C10.9646 10.9474 10.9393 11.0242 10.9393 11.1031C10.9393 11.1819 10.9646 11.2587 11.0115 11.3221C11.0585 11.3854 11.1245 11.4321 11.1999 11.4551H13.4159C12.6219 11.9716 11.9694 12.6782 11.5177 13.5109C11.0661 14.3435 10.8295 15.2758 10.8295 16.2231C10.8295 17.1703 11.0661 18.1026 11.5177 18.9352C11.9694 19.7679 12.6219 20.4745 13.4159 20.9911H5.72794V11.4551H9.39994C9.49754 11.4551 9.59115 11.4163 9.66016 11.3473C9.72917 11.2783 9.76794 11.1847 9.76794 11.0871C9.76794 10.9895 9.72917 10.8959 9.66016 10.8268C9.59115 10.7578 9.49754 10.7191 9.39994 10.7191H5.72794C5.53274 10.7191 5.34554 10.7966 5.20751 10.9346C5.06949 11.0727 4.99194 11.2599 4.99194 11.4551V21.0551C4.99194 21.2503 5.06949 21.4375 5.20751 21.5755C5.34554 21.7135 5.53274 21.7911 5.72794 21.7911H26.2719C26.4671 21.7911 26.6543 21.7135 26.7924 21.5755C26.9304 21.4375 27.0079 21.2503 27.0079 21.0551V11.4551C26.9997 11.2655 26.9185 11.0864 26.7814 10.9552C26.6442 10.824 26.4617 10.7509 26.2719 10.7511ZM11.5999 16.2551C11.5731 15.6508 11.6657 15.0473 11.8724 14.4789C12.0791 13.9105 12.3958 13.3884 12.8045 12.9426C13.2132 12.4967 13.7058 12.1359 14.2541 11.8806C14.8024 11.6254 15.3957 11.4808 15.9999 11.4551C16.6042 11.4808 17.1975 11.6254 17.7458 11.8806C18.2941 12.1359 18.7867 12.4967 19.1954 12.9426C19.6041 13.3884 19.9208 13.9105 20.1275 14.4789C20.3342 15.0473 20.4268 15.6508 20.3999 16.2551C20.4268 16.8593 20.3342 17.4629 20.1275 18.0312C19.9208 18.5996 19.6041 19.1217 19.1954 19.5675C18.7867 20.0134 18.2941 20.3743 17.7458 20.6295C17.1975 20.8847 16.6042 21.0294 15.9999 21.0551C15.3957 21.0294 14.8024 20.8847 14.2541 20.6295C13.7058 20.3743 13.2132 20.0134 12.8045 19.5675C12.3958 19.1217 12.0791 18.5996 11.8724 18.0312C11.6657 17.4629 11.5731 16.8593 11.5999 16.2551ZM26.2719 21.0551H18.5519C19.346 20.5385 19.9985 19.8319 20.4502 18.9992C20.9018 18.1666 21.1384 17.2343 21.1384 16.2871C21.1384 15.3398 20.9018 14.4075 20.4502 13.5749C19.9985 12.7422 19.346 12.0356 18.5519 11.5191H26.2719V21.0551Z" fill="#4D4D4D" stroke="#4D4D4D" stroke-width="0.08"/>
<path id="Vector_2" d="M24.344 6.79103C24.1683 6.71049 23.9693 6.69628 23.784 6.75103L15.88 9.39903C15.7873 9.43176 15.7111 9.4995 15.6677 9.58772C15.6243 9.67595 15.6173 9.77765 15.648 9.87103C15.679 9.96314 15.7452 10.0392 15.8321 10.0827C15.9191 10.1262 16.0197 10.1335 16.112 10.103L24 7.45503L24.8 9.85503C24.82 9.91553 24.8557 9.96963 24.9035 10.0118C24.9513 10.054 25.0094 10.0827 25.072 10.095C25.1353 10.1075 25.2008 10.1037 25.2623 10.0841C25.3238 10.0646 25.3794 10.0298 25.424 9.98303C25.4657 9.93418 25.4943 9.87544 25.5069 9.81242C25.5195 9.74939 25.5157 9.68419 25.496 9.62303L24.696 7.22303C24.6342 7.0415 24.5093 6.88819 24.344 6.79103Z" fill="#4D4D4D" stroke="#4D4D4D" stroke-width="0.08"/>
<path id="Vector_3" d="M15.8879 22.4151L7.99992 25.0551L7.19992 22.6551C7.16889 22.5629 7.10269 22.4869 7.01576 22.4434C6.92882 22.3999 6.82823 22.3926 6.73592 22.4231C6.64322 22.4558 6.56703 22.5235 6.52367 22.6117C6.4803 22.7 6.47321 22.8017 6.50392 22.8951L7.30392 25.2951C7.33321 25.388 7.38088 25.4742 7.4441 25.5484C7.50731 25.6226 7.58478 25.6834 7.67192 25.7271C7.77493 25.774 7.88673 25.7985 7.99992 25.7991C8.07677 25.8113 8.15508 25.8113 8.23192 25.7991L16.1359 23.1511C16.1821 23.1353 16.2248 23.1106 16.2615 23.0783C16.2982 23.0461 16.3281 23.0069 16.3497 22.9631C16.3712 22.9193 16.3839 22.8716 16.3871 22.8229C16.3902 22.7742 16.3837 22.7253 16.3679 22.6791C16.3522 22.6328 16.3275 22.5902 16.2952 22.5535C16.263 22.5168 16.2238 22.4868 16.18 22.4653C16.1361 22.4438 16.0885 22.4311 16.0398 22.4279C15.991 22.4248 15.9421 22.4313 15.8959 22.4471L15.8879 22.4151Z" fill="#4D4D4D" stroke="#4D4D4D" stroke-width="0.08"/>
<path id="Vector_4" d="M23.704 20.255H25.168C25.2159 20.2561 25.2636 20.2476 25.3082 20.2299C25.3528 20.2123 25.3934 20.186 25.4277 20.1524C25.462 20.1189 25.4892 20.0789 25.5078 20.0346C25.5264 19.9904 25.536 19.943 25.536 19.895V18.455C25.5437 18.4027 25.5402 18.3493 25.5254 18.2985C25.5107 18.2477 25.4852 18.2006 25.4507 18.1606C25.4161 18.1205 25.3733 18.0884 25.3252 18.0663C25.2771 18.0443 25.2249 18.0329 25.172 18.0329C25.1191 18.0329 25.0668 18.0443 25.0187 18.0663C24.9706 18.0884 24.9278 18.1205 24.8933 18.1606C24.8587 18.2006 24.8332 18.2477 24.8185 18.2985C24.8038 18.3493 24.8002 18.4027 24.808 18.455V19.559H23.704C23.6516 19.5512 23.5983 19.5548 23.5474 19.5695C23.4966 19.5843 23.4496 19.6098 23.4095 19.6443C23.3695 19.6789 23.3373 19.7216 23.3153 19.7697C23.2933 19.8178 23.2819 19.8701 23.2819 19.923C23.2819 19.9759 23.2933 20.0282 23.3153 20.0763C23.3373 20.1244 23.3695 20.1672 23.4095 20.2017C23.4496 20.2362 23.4966 20.2618 23.5474 20.2765C23.5983 20.2912 23.6516 20.2948 23.704 20.287V20.255Z" fill="#4D4D4D" stroke="#4D4D4D" stroke-width="0.08"/>
<path id="Vector_5" d="M6.83199 18.087C6.73439 18.087 6.64079 18.1258 6.57177 18.1948C6.50276 18.2638 6.46399 18.3574 6.46399 18.455V19.927C6.46398 19.975 6.47355 20.0225 6.49214 20.0667C6.51073 20.1109 6.53796 20.1509 6.57224 20.1845C6.60652 20.218 6.64716 20.2443 6.69177 20.262C6.73637 20.2796 6.78404 20.2881 6.83199 20.287H8.29599C8.34831 20.2948 8.4017 20.2912 8.45251 20.2765C8.50332 20.2618 8.55036 20.2363 8.59042 20.2017C8.63049 20.1672 8.66263 20.1244 8.68466 20.0763C8.70669 20.0282 8.7181 19.9759 8.7181 19.923C8.7181 19.8701 8.70669 19.8179 8.68466 19.7698C8.66263 19.7217 8.63049 19.6789 8.59042 19.6443C8.55036 19.6098 8.50332 19.5843 8.45251 19.5696C8.4017 19.5549 8.34831 19.5513 8.29599 19.559H7.19999V18.455C7.19999 18.3574 7.16122 18.2638 7.0922 18.1948C7.02319 18.1258 6.92959 18.087 6.83199 18.087Z" fill="#4D4D4D" stroke="#4D4D4D" stroke-width="0.08"/>
<path id="Vector_6" d="M8.29596 12.2551H6.83196C6.78334 12.254 6.73499 12.2627 6.68985 12.2808C6.64471 12.2989 6.6037 12.326 6.56931 12.3604C6.53492 12.3948 6.50785 12.4358 6.48975 12.4809C6.47164 12.5261 6.46287 12.5744 6.46396 12.6231V14.0871C6.45618 14.1394 6.45978 14.1928 6.4745 14.2436C6.48922 14.2944 6.51472 14.3414 6.54927 14.3815C6.58382 14.4216 6.6266 14.4537 6.67469 14.4757C6.72278 14.4978 6.77506 14.5092 6.82796 14.5092C6.88086 14.5092 6.93314 14.4978 6.98123 14.4757C7.02933 14.4537 7.0721 14.4216 7.10665 14.3815C7.1412 14.3414 7.1667 14.2944 7.18142 14.2436C7.19615 14.1928 7.19974 14.1394 7.19196 14.0871V12.9511H8.29596C8.34829 12.9588 8.40167 12.9552 8.45248 12.9405C8.50329 12.9258 8.55033 12.9003 8.5904 12.8657C8.63046 12.8312 8.6626 12.7884 8.68463 12.7403C8.70667 12.6922 8.71807 12.64 8.71807 12.5871C8.71807 12.5342 8.70667 12.4819 8.68463 12.4338C8.6626 12.3857 8.63046 12.3429 8.5904 12.3084C8.55033 12.2738 8.50329 12.2483 8.45248 12.2336C8.40167 12.2189 8.34829 12.2153 8.29596 12.2231V12.2551Z" fill="#4D4D4D" stroke="#4D4D4D" stroke-width="0.08"/>
<path id="Vector_7" d="M23.704 12.9511H24.8V14.0551C24.7922 14.1074 24.7958 14.1608 24.8105 14.2116C24.8252 14.2624 24.8507 14.3094 24.8853 14.3495C24.9198 14.3896 24.9626 14.4217 25.0107 14.4437C25.0588 14.4658 25.1111 14.4772 25.164 14.4772C25.2169 14.4772 25.2692 14.4658 25.3172 14.4437C25.3653 14.4217 25.4081 14.3896 25.4427 14.3495C25.4772 14.3094 25.5027 14.2624 25.5174 14.2116C25.5322 14.1608 25.5357 14.1074 25.528 14.0551V12.5911C25.5291 12.5424 25.5203 12.4941 25.5022 12.4489C25.4841 12.4038 25.457 12.3628 25.4226 12.3284C25.3882 12.294 25.3472 12.2669 25.3021 12.2488C25.2569 12.2307 25.2086 12.222 25.16 12.2231H23.704C23.6516 12.2153 23.5983 12.2189 23.5474 12.2336C23.4966 12.2483 23.4496 12.2738 23.4095 12.3084C23.3695 12.3429 23.3373 12.3857 23.3153 12.4338C23.2933 12.4819 23.2819 12.5342 23.2819 12.5871C23.2819 12.64 23.2933 12.6922 23.3153 12.7403C23.3373 12.7884 23.3695 12.8312 23.4095 12.8657C23.4496 12.9003 23.4966 12.9258 23.5474 12.9405C23.5983 12.9552 23.6516 12.9588 23.704 12.9511Z" fill="#4D4D4D" stroke="#4D4D4D" stroke-width="0.08"/>
</g>
</g>
</g>
</svg>
