<svg width="21" height="20" viewBox="0 0 21 20" fill="none" xmlns="http://www.w3.org/2000/svg">
<path d="M0.375 2.5V8.33333H8.70833V0H2.875C1.49667 0 0.375 1.12167 0.375 2.5ZM18.7083 2.5C18.7083 1.12167 17.5867 0 16.2083 0H10.375V8.33333H18.7083V2.5ZM0.375 15.8333C0.375 17.2117 1.49667 18.3333 2.875 18.3333H8.70833V10H0.375V15.8333ZM20.3575 18.8033L18.0142 16.46C18.4508 15.8008 18.7083 15.0133 18.7083 14.1658C18.7083 11.8683 16.8392 9.99917 14.5417 9.99917C12.2442 9.99917 10.375 11.8683 10.375 14.1658C10.375 16.4633 12.2442 18.3325 14.5417 18.3325C15.3892 18.3325 16.1767 18.075 16.8358 17.6383L19.1792 19.9817L20.3575 18.8033Z" fill="#2A5E99"/>
</svg>
