<svg width="25" height="24" viewBox="0 0 25 24" fill="none" xmlns="http://www.w3.org/2000/svg">
<path d="M17.625 20.75C17.625 21.4404 17.0654 22 16.375 22C15.6846 22 15.125 21.4404 15.125 20.75C15.125 20.0596 15.6846 19.5 16.375 19.5C17.0654 19.5 17.625 20.0596 17.625 20.75Z" fill="#2A5E99" stroke="#2A5E99"/>
<path d="M9.625 20.75C9.625 21.4404 9.06536 22 8.375 22C7.68464 22 7.125 21.4404 7.125 20.75C7.125 20.0596 7.68464 19.5 8.375 19.5C9.06536 19.5 9.625 20.0596 9.625 20.75Z" fill="#2A5E99" stroke="#2A5E99"/>
<path d="M5.46334 3.98068L5.46341 3.98069L5.46396 3.97219C5.49233 3.53252 5.34982 3.09755 5.04424 2.76287L5.04433 2.76278L5.03668 2.75476C4.73593 2.43969 4.31677 2.25 3.865 2.25H2.125C1.99114 2.25 1.875 2.13386 1.875 2C1.875 1.86614 1.99114 1.75 2.125 1.75H3.865C4.44021 1.75 5.00755 1.99766 5.41589 2.42739C5.66153 2.70687 5.8246 3.04635 5.90743 3.41081L5.99589 3.8H6.395H18.685C20.1666 3.8 21.2849 4.9953 21.1763 6.47338L21.1763 6.47438C21.1653 6.62815 21.0373 6.75 20.875 6.75H5.565C5.37856 6.75 5.24882 6.60139 5.2632 6.4324L5.26334 6.43068L5.46334 3.98068Z" fill="#2A5E99" stroke="#2A5E99"/>
<path d="M20.6351 8.75H5.29505C4.87505 8.75 4.53505 9.07 4.49505 9.48L4.13505 13.83C3.99505 15.54 5.33505 17 7.04505 17H18.1651C19.6651 17 20.9851 15.77 21.0951 14.27L21.4251 9.6C21.4651 9.14 21.1051 8.75 20.6351 8.75Z" fill="#2A5E99"/>
</svg>
