<svg width="25" height="24" viewBox="0 0 25 24" fill="none" xmlns="http://www.w3.org/2000/svg">
<path d="M11.9746 5.62953L12.375 6.16466L12.7754 5.62953C13.6954 4.39974 15.1699 3.60001 16.815 3.60001C19.6065 3.60001 21.875 5.87381 21.875 8.69001C21.875 9.82563 21.6939 10.8738 21.3793 11.8461L21.3782 11.8493C20.624 14.2361 19.0785 16.1596 17.4104 17.5933C15.74 19.0289 13.9754 19.9483 12.8339 20.3367L12.8339 20.3366L12.8286 20.3385C12.7287 20.3737 12.5643 20.4 12.375 20.4C12.1857 20.4 12.0213 20.3737 11.9214 20.3385L11.9214 20.3385L11.9161 20.3367C10.7746 19.9483 9.01 19.0289 7.33965 17.5933C5.67149 16.1596 4.12596 14.2361 3.37176 11.8493L3.37177 11.8493L3.37072 11.8461C3.05614 10.8738 2.875 9.82563 2.875 8.69001C2.875 5.87381 5.14348 3.60001 7.935 3.60001C9.5801 3.60001 11.0546 4.39974 11.9746 5.62953Z" fill="#2A5E99" stroke="#2A5E99"/>
</svg>
