<svg width="25" height="24" viewBox="0 0 25 24" fill="none" xmlns="http://www.w3.org/2000/svg">
<path d="M8.125 6.75C8.125 4.40614 10.0311 2.5 12.375 2.5C14.7185 2.5 16.6245 4.40562 16.625 6.74903C16.6155 9.04858 14.8218 10.9052 12.536 10.99H12.536H12.5359H12.5359H12.5359H12.5359H12.5358H12.5358H12.5358H12.5357H12.5357H12.5357H12.5356H12.5356H12.5356H12.5356H12.5355H12.5355H12.5355H12.5354H12.5354H12.5354H12.5354H12.5353H12.5353H12.5353H12.5352H12.5352H12.5352H12.5351H12.5351H12.5351H12.5351H12.535H12.535H12.535H12.5349H12.5349H12.5349H12.5349H12.5348H12.5348H12.5348H12.5347H12.5347H12.5347H12.5346H12.5346H12.5346H12.5346H12.5345H12.5345H12.5345H12.5344H12.5344H12.5344H12.5344H12.5343H12.5343H12.5343H12.5342H12.5342H12.5342H12.5341H12.5341H12.5341H12.5341H12.534H12.534H12.534H12.5339H12.5339H12.5339H12.5338H12.5338H12.5338H12.5338H12.5337H12.5337H12.5337H12.5336H12.5336H12.5336H12.5335H12.5335H12.5335H12.5335H12.5334H12.5334H12.5334H12.5333H12.5333H12.5333H12.5332H12.5332H12.5332H12.5331H12.5331H12.5331H12.5331H12.533H12.533H12.533H12.5329H12.5329H12.5329H12.5328H12.5328H12.5328H12.5327H12.5327H12.5327H12.5326H12.5326H12.5326H12.5325H12.5325H12.5325H12.5325H12.5324H12.5324H12.5324H12.5323H12.5323H12.5323H12.5322H12.5322H12.5322H12.5321H12.5321H12.5321H12.532H12.532H12.532H12.5319H12.5319H12.5319H12.5318H12.5318H12.5318H12.5317H12.5317H12.5316H12.5316H12.5316H12.5315H12.5315H12.5315H12.5314H12.5314H12.5314H12.5313H12.5313H12.5313H12.5312H12.5312H12.5312H12.5311H12.5311H12.531H12.531H12.531H12.5309H12.5309H12.5309H12.5308H12.5308H12.5308H12.5307H12.5307H12.5306H12.5306H12.5306H12.5305H12.5305H12.5305H12.5304H12.5304H12.5303H12.5303H12.5303H12.5302H12.5302H12.5301H12.5301H12.5301H12.53H12.53H12.5299H12.5299H12.5299H12.5298H12.5298H12.5297H12.5297H12.5297H12.5296H12.5296H12.5295H12.5295H12.5295H12.5294H12.5294H12.5293H12.5293H12.5292H12.5292H12.5292H12.5291H12.5291H12.529H12.529H12.5289H12.5289H12.5289H12.5288H12.5288H12.5287H12.5287H12.5286H12.5286H12.5285H12.5285H12.5285H12.5284H12.5284H12.5283H12.5283H12.5282H12.5282H12.5281H12.5281H12.528H12.528H12.5279H12.5279H12.5279H12.5278H12.5278H12.5277H12.5277H12.5276H12.5276H12.5275H12.5275H12.5274H12.5274H12.5273H12.5273H12.5272H12.5272H12.5271H12.5271H12.527H12.527H12.5269H12.5269H12.5268H12.5268H12.5267H12.5267H12.5266H12.5266H12.5265H12.5264H12.5264H12.5263H12.5263H12.5262H12.5262H12.5261H12.5261H12.526H12.526H12.5259H12.5259H12.5258H12.5257H12.5257H12.5256H12.5256H12.5255H12.5255H12.5254H12.5253H12.5253H12.5252H12.5252H12.5251H12.5251H12.525H12.5249H12.5248H12.5246H12.5245H12.5244H12.5243H12.5242H12.5241H12.524H12.5238H12.5237H12.5236H12.5235H12.5234H12.5233H12.5232H12.523H12.5229H12.5228H12.5227H12.5226H12.5225H12.5224H12.5223H12.5221H12.522H12.5219H12.5218H12.5217H12.5216H12.5215H12.5214H12.5213H12.5211H12.521H12.5209H12.5208H12.5207H12.5206H12.5205H12.5204H12.5203H12.5202H12.5201H12.5199H12.5198H12.5197H12.5196H12.5195H12.5194H12.5193H12.5192H12.5191H12.519H12.5189H12.5188H12.5187H12.5186H12.5185H12.5183H12.5182H12.5181H12.518H12.5179H12.5178H12.5177H12.5176H12.5175H12.5174H12.5173H12.5172H12.5171H12.517H12.5169H12.5168H12.5167H12.5166H12.5165H12.5164H12.5163H12.5162H12.5161H12.516H12.5159H12.5158H12.5157H12.5156H12.5155H12.5154H12.5153H12.5152H12.5151H12.515H12.5149H12.5148H12.5147H12.5146H12.5145H12.5144H12.5143H12.5142H12.5141H12.514H12.5139H12.5138H12.5137H12.5136H12.5135H12.5134H12.5133H12.5132H12.5131H12.513H12.5129H12.5128H12.5127H12.5126H12.5125H12.5124H12.5123H12.5122H12.5121H12.512H12.5119H12.5118H12.5118H12.5117H12.5116H12.5115H12.5114H12.5113H12.5112H12.5111H12.511H12.5109H12.5108H12.5107H12.5106H12.5105H12.5104H12.5103H12.5102H12.5101H12.5101H12.51H12.5099H12.5098H12.5097H12.5096H12.5095H12.5094H12.5093H12.5092H12.5091H12.509H12.5089H12.5088H12.5088C12.4183 10.9796 12.3242 10.9808 12.2375 10.989C9.90038 10.8911 8.125 9.03575 8.125 6.75Z" fill="#2A5E99" stroke="#2A5E99"/>
<path d="M7.57368 20.1749L7.57231 20.174C6.41336 19.4013 5.83496 18.4018 5.83496 17.38C5.83496 16.3579 6.41372 15.3485 7.582 14.5662C8.88856 13.7018 10.6268 13.255 12.3875 13.255C14.1488 13.255 15.8817 13.7021 17.1776 14.566C18.333 15.3363 18.9059 16.3356 18.915 17.3621C18.9142 18.3935 18.3353 19.3928 17.1758 20.1752C15.875 21.0484 14.1377 21.5 12.375 21.5C10.612 21.5 8.87457 21.0483 7.57368 20.1749Z" fill="#2A5E99" stroke="#2A5E99"/>
</svg>
