<svg width="25" height="24" viewBox="0 0 25 24" fill="none" xmlns="http://www.w3.org/2000/svg">
<g id="vuesax/linear/profile">
<g id="profile">
<path id="Vector" d="M12.4101 10.87C12.3101 10.86 12.1901 10.86 12.0801 10.87C9.70006 10.79 7.81006 8.84 7.81006 6.44C7.81006 3.99 9.79006 2 12.2501 2C14.7001 2 16.6901 3.99 16.6901 6.44C16.6801 8.84 14.7901 10.79 12.4101 10.87Z" stroke="#A2A2A2" stroke-width="1.5" stroke-linecap="round" stroke-linejoin="round"/>
<path id="Vector_2" d="M7.40997 14.56C4.98997 16.18 4.98997 18.82 7.40997 20.43C10.16 22.27 14.67 22.27 17.42 20.43C19.84 18.81 19.84 16.17 17.42 14.56C14.68 12.73 10.17 12.73 7.40997 14.56Z" stroke="#A2A2A2" stroke-width="1.5" stroke-linecap="round" stroke-linejoin="round"/>
</g>
</g>
</svg>
