<svg width="22" height="16" viewBox="0 0 22 16" fill="none" xmlns="http://www.w3.org/2000/svg">
<g id="Frame" clip-path="url(#clip0_1_3425)">
<path id="Vector" d="M11.2679 1.13618C15.2067 1.13618 18.3996 4.32915 18.3996 8.26788C18.3996 9.98404 17.7934 11.5587 16.7835 12.7892L19.466 15.4716C19.7406 15.7462 19.7406 16.1914 19.466 16.4659C19.2164 16.7156 18.8257 16.7383 18.5505 16.5341L18.4716 16.4659L15.7893 13.7834C14.5587 14.7934 12.9841 15.3996 11.2679 15.3996C7.32919 15.3996 4.13623 12.2066 4.13623 8.26788C4.13623 4.32915 7.32919 1.13618 11.2679 1.13618ZM11.2679 2.54244C8.10585 2.54244 5.54248 5.1058 5.54248 8.26788C5.54248 11.4299 8.10585 13.9934 11.2679 13.9934C12.753 13.9934 14.1061 13.4279 15.1235 12.5006L15.3157 12.3157C16.3547 11.2755 16.9934 9.84629 16.9934 8.26788C16.9934 5.1058 14.43 2.54244 11.2679 2.54244Z" fill="#2A5E99"/>
</g>
<defs>
<clipPath id="clip0_1_3425">
<rect width="22" height="15" fill="white" transform="translate(0 0.5)"/>
</clipPath>
</defs>
</svg>
